# This file uses centimeters as units for non-parametric coordinates.

mtllib crossplanetwisted.mtl
g default
v 0.000000 -3.125000 6.250000
v 0.000000 3.125000 6.250000
v 0.000000 -3.125000 0.000000
v 0.000000 3.125000 0.000000
v -3.125000 -0.000000 5.120290
v 3.125000 -0.000000 5.120290
v -3.125000 0.000000 0.000000
v 3.125000 0.000000 0.000000
v -2.209709 -2.209709 7.517990
v 2.209709 2.209709 7.517990
v -2.209709 -2.209709 0.000000
v 2.209709 2.209709 0.000000
vt 0.000000 0.000000
vt 1.000000 0.000000
vt 0.000000 1.000000
vt 1.000000 1.000000
vt 0.000000 0.000000
vt 1.000000 0.000000
vt 1.000000 1.000000
vt 0.000000 1.000000
vt 0.000000 0.000000
vt 1.000000 0.000000
vt 1.000000 1.000000
vt 0.000000 1.000000
vn -1.000000 0.000000 0.000000
vn -1.000000 0.000000 0.000000
vn -1.000000 0.000000 0.000000
vn -1.000000 0.000000 0.000000
vn 0.000000 1.000000 0.000000
vn 0.000000 1.000000 0.000000
vn 0.000000 1.000000 0.000000
vn 0.000000 1.000000 0.000000
vn -0.707107 0.707107 0.000000
vn -0.707107 0.707107 0.000000
vn -0.707107 0.707107 0.000000
vn -0.707107 0.707107 0.000000
s off
g crossPlaneTwisted
usemtl initialShadingGroup
f 1/1/1 2/2/2 4/4/3 3/3/4
f 5/5/5 6/6/6 8/7/7 7/8/8
f 9/9/9 10/10/10 12/11/11 11/12/12
