# This file uses centimeters as units for non-parametric coordinates.

mtllib quad_crevice.mtl
g default
v -18.619887 1.100641 18.619887
v 18.619887 1.100641 18.619887
v -18.619887 1.100641 -18.619887
v 18.619887 1.100641 -18.619887
v -18.619887 1.100641 0.000000
v 18.619887 1.100641 0.000000
v 0.000000 1.100641 18.619887
v 0.000000 0.000000 0.000000
v 0.000000 1.100641 -18.619887
vt 0.500000 1.000000
vt 0.500000 0.500000
vt 1.000000 0.500000
vt 1.000000 1.000000
vt -0.000000 1.000000
vt -0.000000 0.500000
vt -0.000000 -0.000000
vt 0.500000 -0.000000
vt 1.000000 -0.000000
vn 0.000000 1.000000 0.000000
vn 0.000000 1.000000 0.000000
vn 0.000000 1.000000 0.000000
vn 0.000000 1.000000 0.000000
vn 0.000000 1.000000 0.000000
vn 0.000000 1.000000 0.000000
vn 0.000000 1.000000 0.000000
vn 0.000000 1.000000 0.000000
vn 0.000000 1.000000 0.000000
vn 0.000000 1.000000 0.000000
vn 0.000000 1.000000 0.000000
vn 0.000000 1.000000 0.000000
vn 0.000000 1.000000 0.000000
vn 0.000000 1.000000 0.000000
vn 0.000000 1.000000 0.000000
vn 0.000000 1.000000 0.000000
s off
g quad4point:quad_middlecrevice
usemtl initialShadingGroup
f 5/1/1 8/2/2 9/3/3 3/4/4
f 1/5/5 7/6/6 8/2/7 5/1/8
f 7/6/9 2/7/10 6/8/11 8/2/12
f 9/3/13 8/2/14 6/8/15 4/9/16
